<?xml version="1.0" standalone="no"?>
<!DOCTYPE svg PUBLIC "-//W3C//DTD SVG 20010904//EN"
 "http://www.w3.org/TR/2001/REC-SVG-20010904/DTD/svg10.dtd">
<svg version="1.0" xmlns="http://www.w3.org/2000/svg"
 width="525.000000pt" height="525.000000pt" viewBox="0 0 525.000000 525.000000"
 preserveAspectRatio="xMidYMid meet">
<metadata>
Created by potrace 1.11, written by Peter Selinger 2001-2013
</metadata>
<g transform="translate(0.000000,525.000000) scale(0.100000,-0.100000)"
fill="#000000" stroke="none">
<path d="M278 3880 c0 -3 -2 -152 -3 -332 -1 -181 -4 -331 -8 -334 -3 -3 -52
-7 -109 -8 l-103 -1 -3 -132 -3 -133 111 0 c60 0 110 -3 111 -7 0 -5 2 -327 3
-718 1 -390 6 -728 11 -750 39 -185 164 -262 370 -228 44 7 96 15 115 18 51 8
93 16 110 21 12 3 15 26 14 131 -1 71 -2 133 -3 140 -1 8 -16 7 -56 -3 -31 -8
-85 -17 -121 -19 -57 -3 -68 -1 -94 21 -16 14 -34 42 -39 62 -7 22 -11 283
-11 684 l0 648 162 2 163 3 0 130 -1 130 -149 2 c-83 1 -156 2 -162 2 -10 1
-13 74 -13 330 0 241 -3 332 -12 337 -13 8 -277 12 -280 4z"/>
<path d="M3088 3882 c-16 -2 -29 -9 -29 -15 -1 -7 -3 -181 -4 -387 -1 -206 -3
-381 -4 -389 0 -9 -12 0 -26 20 -60 81 -150 127 -261 132 -195 9 -323 -58
-393 -206 -60 -129 -61 -139 -58 -832 l2 -630 28 -80 c69 -197 214 -298 417
-289 78 3 101 7 159 28 49 18 105 56 138 95 12 14 31 37 42 51 l21 25 -2 -80
-1 -80 116 -3 117 -3 0 493 c0 1532 -1 2142 -4 2145 -4 5 -225 9 -258 5z
m-150 -922 c49 -27 74 -61 98 -126 15 -44 17 -102 19 -584 1 -572 -2 -620 -48
-688 -50 -73 -150 -110 -241 -87 -77 20 -138 93 -152 181 -10 63 -11 1029 -2
1112 11 96 52 162 125 203 50 27 143 22 201 -11z"/>
<path d="M1455 3241 c-192 -32 -334 -173 -372 -370 -4 -20 -8 -304 -9 -631 -3
-650 -2 -663 55 -785 62 -131 163 -207 326 -243 17 -3 73 -6 125 -6 253 1 420
130 475 368 21 91 21 1200 0 1299 -14 69 -52 163 -77 192 -37 44 -76 82 -104
102 -30 22 -120 61 -159 69 -43 10 -213 12 -260 5z m216 -272 c64 -37 94 -80
114 -164 17 -72 14 -1148 -4 -1190 -40 -99 -110 -147 -210 -146 -109 0 -188
65 -211 174 -8 36 -10 226 -8 612 l3 560 28 57 c28 57 65 89 125 109 36 12
133 4 163 -12z"/>
<path d="M3990 3240 c-94 -16 -190 -67 -251 -132 -50 -54 -83 -118 -108 -207
-20 -71 -21 -100 -21 -665 1 -381 4 -607 11 -636 6 -25 12 -49 13 -55 46 -212
244 -349 491 -341 256 9 407 128 472 373 4 15 8 298 10 628 2 500 0 611 -13
669 -41 191 -161 317 -341 360 -64 14 -192 17 -263 6z m211 -268 c48 -19 88
-62 110 -120 22 -56 22 -63 23 -622 0 -512 -1 -570 -17 -616 -40 -117 -153
-171 -282 -135 -66 17 -130 101 -141 181 -2 14 -4 272 -4 573 -1 481 1 555 15
601 24 76 71 124 144 147 32 10 117 5 152 -9z"/>
<path d="M4819 1531 c-1 -19 -1 -249 0 -273 1 -16 14 -18 131 -18 72 0 130 3
131 8 1 4 2 71 3 150 1 119 -1 143 -14 146 -8 3 -68 4 -132 4 -101 -1 -118 -3
-119 -17z"/>
</g>
</svg>
